<?xml version="1.0" encoding="UTF-8"?>
<svg id="Layer_1" data-name="Layer 1" xmlns="http://www.w3.org/2000/svg" viewBox="140 100 510 320">
  <defs>
    <style>
      .cls-1 {
        font-size: 98.28px;
      }

      .cls-1, .cls-2, .cls-3 {
        font-family: Ronaldo, Ronaldo;
      }

      .cls-1, .cls-4 {
        fill: #f15f22;
      }

      .cls-2 {
        fill: #2b3990;
      }

      .cls-2, .cls-3 {
        font-size: 97.67px;
      }

      .cls-5 {
        fill: none;
      }

      .cls-3, .cls-6 {
        fill: #cccccc;
      }
    </style>
  </defs>
  <text class="cls-3" transform="translate(162.1 364.16)"><tspan x="0" y="0">pe</tspan></text>
  <text class="cls-1" transform="translate(302.8 364.04)"><tspan x="0" y="0">load</tspan></text>
  <g>
    <path class="cls-6" d="M609.66,376.53c-.16,4.02-.9,7.87-2.2,11.39h26.35c1.43,0,1.78-4.59,1.51-11.39h-25.66Z"/>
    <path class="cls-6" d="M529.08,376.53v11.39h23.86c-1.31-3.52-2.06-7.37-2.22-11.39h-21.64Z"/>
    <rect class="cls-6" x="163.76" y="376.53" width="358.16" height="11.39"/>
    <path class="cls-6" d="M551.08,370.46c2.28-14.05,14.44-24.78,29.12-24.78s26.83,10.73,29.11,24.78h25.6c-1.53-17.75-6.1-43.8-6.1-43.8-1.11-1.92-3.17-3.11-5.39-3.11l-28.68-3.17-13.07-23.34c-3.11-5.54-8.96-8.98-15.31-8.98h-37.27v82.4h21.99ZM536.7,293.75h28.11c3.32,0,6.5,1.65,8.14,4.54,0,.03.02.05.02.06l11.98,21.34h-38.72c-5.26,0-9.53-4.27-9.53-9.53v-16.41Z"/>
    <path class="cls-6" d="M580.2,351.99c-12.82,0-23.22,10.39-23.22,23.21s10.4,23.22,23.22,23.22,23.21-10.4,23.21-23.22-10.39-23.21-23.21-23.21ZM580.2,386.59c-6.29,0-11.38-5.1-11.38-11.39s5.09-11.38,11.38-11.38,11.38,5.1,11.38,11.38-5.09,11.39-11.38,11.39Z"/>
    <path class="cls-6" d="M287.25,382.22c-.01,12.83-10.39,23.22-23.2,23.22s-23.22-10.39-23.23-23.22h46.43Z"/>
  </g>
  <text class="cls-2" transform="translate(156.6 275.93)"><tspan x="0" y="0">ca</tspan></text>
  <rect class="cls-4" x="507.08" y="216.35" width="14.85" height="147.81"/>
  <rect class="cls-4" x="406.82" y="116.09" width="14.85" height="215.37" transform="translate(190.46 638.02) rotate(-90)"/>
  <polygon class="cls-4" points="306.6 237.48 292.9 223.78 306.6 210.07 306.6 237.48"/>
  <line class="cls-5" x1="428.35" y1="166.69" x2="419.17" y2="157.51"/>
  <line class="cls-5" x1="454" y1="192.34" x2="444.82" y2="183.16"/>
</svg>
